<?xml version="1.0" standalone="no"?>
<!DOCTYPE svg PUBLIC "-//W3C//DTD SVG 20010904//EN"
 "http://www.w3.org/TR/2001/REC-SVG-20010904/DTD/svg10.dtd">
<svg version="1.0" xmlns="http://www.w3.org/2000/svg"
 width="512.000000pt" height="512.000000pt" viewBox="0 0 512.000000 512.000000"
 preserveAspectRatio="xMidYMid meet">

<g transform="translate(0.000000,512.000000) scale(0.100000,-0.100000)"
fill="#000000" stroke="none">
<path d="M2510 4901 c-60 -19 -103 -58 -427 -383 -230 -231 -347 -355 -358
-380 -21 -52 -19 -131 4 -177 37 -71 115 -121 191 -121 74 0 102 19 260 176
86 85 159 154 163 154 4 0 7 -470 7 -1045 0 -1009 1 -1047 19 -1083 85 -166
315 -160 385 10 14 33 16 160 16 1078 0 572 3 1040 7 1040 4 0 77 -69 163
-154 158 -157 186 -176 260 -176 78 0 159 53 191 125 23 49 24 123 4 173 -20
46 -682 714 -737 743 -44 23 -112 32 -148 20z"/>
<path d="M802 3621 c-57 -15 -108 -56 -136 -112 l-26 -53 0 -1120 c0 -1253 -3
-1195 71 -1346 82 -164 253 -296 435 -335 103 -22 2724 -22 2829 0 181 38 349
168 433 335 75 149 72 92 72 1346 l0 1122 -28 53 c-20 39 -41 62 -77 84 l-48
30 -271 0 c-258 0 -273 -1 -311 -22 -77 -41 -115 -105 -115 -193 0 -58 23
-111 67 -152 50 -48 90 -58 228 -58 l125 0 -2 -998 -3 -998 -25 -37 c-14 -21
-43 -50 -64 -65 l-39 -27 -1357 0 -1357 0 -39 27 c-21 15 -50 44 -64 65 l-25
37 -3 998 -2 998 125 0 c137 0 178 10 229 58 81 76 88 220 13 300 -12 13 -40
34 -62 45 -38 21 -55 22 -290 24 -137 1 -265 -2 -283 -6z"/>
</g>
</svg>
